<svg xmlns="http://www.w3.org/2000/svg" viewBox="0 0 307.03 102.98"><title>nav-footer</title><path d="M5672.77,2496.95c-2.39,0-4.28,1.69-4.28,5.05v22.6c0,3.37,1.89,5.05,4.28,5.05s4.35-1.68,4.35-5.05V2502C5677.12,2498.63,5675.16,2496.95,5672.77,2496.95Z" transform="translate(-5594.79 -2461.11)" fill="#f2f2f2"/><path d="M5693,2473.09c-1.62-1.63-4.29-2.22-9.46-2.22H5643.6c-9.61,0-12.72-5-14.79-9.76-2.07,4.73-5.18,9.76-14.79,9.76h-7.69c-5.18,0-7.85.59-9.47,2.22s-2.07,3.85-2.07,8.58v7.65h0v54.21c0,4.73.45,7.1,2.07,8.58s4.29,2.22,9.46,2.22h44c9.61,0,12.72,5,14.79,9.76,2.07-4.73,5.17-9.76,14.79-9.76h3.66c5.18,0,7.84-.59,9.47-2.22s2.07-3.85,2.07-8.58v-61.86C5695.07,2476.93,5694.63,2474.57,5693,2473.09Zm-64,16.56h-13.26v16.77h11.44v5.4h-11.44v17H5629v5.41h-19.3v-50H5629v5.41Zm28.71,7.37-13.41,45.28h-5.61l13.27-44.86h-9.75v7.37h-5.55v-12.49h21.06v4.7Zm25.06,27.37c0,3.73-1.05,6-2.81,7.73a10.65,10.65,0,0,1-7.23,2.67,10.48,10.48,0,0,1-7.16-2.67c-1.75-1.76-2.81-4-2.81-7.73v-22.11c0-3.72,1.06-6,2.81-7.72a10.47,10.47,0,0,1,7.16-2.67,10.64,10.64,0,0,1,7.23,2.67c1.76,1.75,2.81,4,2.81,7.72v22.11Z" transform="translate(-5594.79 -2461.11)" fill="#f2f2f2"/><path d="M5706.83,2521.9h-1.42v5.69h-1.66v-13.7h3.08c2.08,0,3.26.94,3.26,4C5710.09,2520.71,5709.11,2521.9,5706.83,2521.9Zm0-6.52h-1.46v5h1.46c1.27,0,1.56-1,1.56-2.52S5708.15,2515.38,5706.88,2515.38Z" transform="translate(-5594.79 -2461.11)" fill="#f2f2f2"/><path d="M5718,2526.76a3,3,0,0,1-2.37,1,3,3,0,0,1-2.35-1c-0.94-1-1-2.6-1-6s0.05-5,1-6a3,3,0,0,1,2.35-1,3,3,0,0,1,2.37,1c0.94,1,1,2.6,1,6S5718.94,2525.73,5718,2526.76Zm-1.25-11a1.46,1.46,0,0,0-2.23,0c-0.48.65-.57,1.75-0.57,5s0.09,4.35.57,5a1.46,1.46,0,0,0,2.23,0c0.48-.65.57-1.75,0.57-5S5717.22,2516.4,5716.74,2515.74Z" transform="translate(-5594.79 -2461.11)" fill="#f2f2f2"/><path d="M5721.58,2527.59v-13.7h1.66v12.22h3.64v1.48h-5.3Z" transform="translate(-5594.79 -2461.11)" fill="#f2f2f2"/><path d="M5729,2527.59v-13.7h1.66v13.7H5729Zm0-14.64h1.42l1.31-2.45h-1.17Z" transform="translate(-5594.79 -2461.11)" fill="#f2f2f2"/><path d="M5736.76,2515.38v12.21h-1.65v-12.21h-2.31v-1.48h6.25v1.48h-2.29Z" transform="translate(-5594.79 -2461.11)" fill="#f2f2f2"/><path d="M5741.17,2527.59v-13.7h1.66v13.7h-1.66Z" transform="translate(-5594.79 -2461.11)" fill="#f2f2f2"/><path d="M5750.92,2527a2.9,2.9,0,0,1-2.12.75,3,3,0,0,1-2.35-1c-0.95-1-1-2.6-1-6s0.05-5,1-6a3.32,3.32,0,0,1,4.52-.18,3.86,3.86,0,0,1,1,2.73h-1.66a2.6,2.6,0,0,0-.42-1.58,1.28,1.28,0,0,0-1.08-.48,1.31,1.31,0,0,0-1.12.52c-0.48.65-.57,1.75-0.57,5s0.1,4.35.57,5a1.31,1.31,0,0,0,1.12.52,1.3,1.3,0,0,0,1.08-.5,2.54,2.54,0,0,0,.44-1.56H5752A3.84,3.84,0,0,1,5750.92,2527Z" transform="translate(-5594.79 -2461.11)" fill="#f2f2f2"/><path d="M5759.48,2527.59l-0.65-3.23h-3.18l-0.65,3.23h-1.73l3.2-13.7h1.6l3.17,13.7h-1.75Zm-2.23-11-1.29,6.31h2.56Z" transform="translate(-5594.79 -2461.11)" fill="#f2f2f2"/><path d="M5768.3,2526.9a3.4,3.4,0,0,1-2.43.83,3.28,3.28,0,0,1-2.4-.83,3.67,3.67,0,0,1-.84-2.89h1.65a2.39,2.39,0,0,0,.46,1.79,1.75,1.75,0,0,0,2.31,0,2.54,2.54,0,0,0,.44-1.83c0-1.58-.23-2.06-1.35-2.52l-1.56-.63c-1.41-.58-1.86-1.35-1.86-3.42a3.68,3.68,0,0,1,1-2.81,3.09,3.09,0,0,1,2.17-.79,3.15,3.15,0,0,1,2.27.79,3.61,3.61,0,0,1,.91,2.81h-1.66a2.44,2.44,0,0,0-.42-1.65,1.35,1.35,0,0,0-1.12-.47,1.39,1.39,0,0,0-1.06.42,2.4,2.4,0,0,0-.48,1.63c0,1.35.21,1.75,1.31,2.21l1.54,0.64c1.55,0.63,1.92,1.59,1.92,3.75A3.91,3.91,0,0,1,5768.3,2526.9Z" transform="translate(-5594.79 -2461.11)" fill="#f2f2f2"/><path d="M5704.68,2552.24v-13.7H5710V2540h-3.64v4.59h3.14v1.49h-3.14v4.65H5710v1.48h-5.29Z" transform="translate(-5594.79 -2461.11)" fill="#f2f2f2"/><path d="M5716.55,2552.24v-13.7h1.65v13.7h-1.65Z" transform="translate(-5594.79 -2461.11)" fill="#f2f2f2"/><path d="M5726.35,2552.24l-3.54-9.36v9.36h-1.65v-13.7h1.54l3.51,9.37,0-9.37h1.66v13.7h-1.51Z" transform="translate(-5594.79 -2461.11)" fill="#f2f2f2"/><path d="M5736,2551.55a3.41,3.41,0,0,1-2.42.83,3.3,3.3,0,0,1-2.41-.83,3.66,3.66,0,0,1-.85-2.89H5732a2.38,2.38,0,0,0,.46,1.79,1.49,1.49,0,0,0,1.14.43,1.51,1.51,0,0,0,1.17-.44,2.53,2.53,0,0,0,.44-1.83c0-1.58-.23-2.06-1.35-2.52l-1.56-.63c-1.4-.58-1.86-1.34-1.86-3.42a3.67,3.67,0,0,1,1-2.81,3.1,3.1,0,0,1,2.17-.79,3.15,3.15,0,0,1,2.27.79,3.61,3.61,0,0,1,.9,2.81h-1.66a2.41,2.41,0,0,0-.42-1.65,1.35,1.35,0,0,0-1.12-.47,1.38,1.38,0,0,0-1.06.42,2.41,2.41,0,0,0-.48,1.64c0,1.35.21,1.75,1.31,2.21l1.54,0.64c1.56,0.63,1.93,1.59,1.93,3.75A3.92,3.92,0,0,1,5736,2551.55Z" transform="translate(-5594.79 -2461.11)" fill="#f2f2f2"/><path d="M5742.45,2540v12.21h-1.66V2540h-2.31v-1.48h6.25V2540h-2.29Z" transform="translate(-5594.79 -2461.11)" fill="#f2f2f2"/><path d="M5746.86,2552.24v-13.7h1.65v13.7h-1.65Z" transform="translate(-5594.79 -2461.11)" fill="#f2f2f2"/><path d="M5754.61,2540v12.21H5753V2540h-2.31v-1.48h6.25V2540h-2.29Z" transform="translate(-5594.79 -2461.11)" fill="#f2f2f2"/><path d="M5764.34,2551.49a3.32,3.32,0,0,1-4.55,0,3.25,3.25,0,0,1-.88-2.37v-10.58h1.65v10.68a1.52,1.52,0,1,0,3,0v-10.68h1.66v10.58A3.24,3.24,0,0,1,5764.34,2551.49Z" transform="translate(-5594.79 -2461.11)" fill="#f2f2f2"/><path d="M5773.19,2551.65a2.91,2.91,0,0,1-2.12.75,3,3,0,0,1-2.35-1c-0.94-1-1-2.6-1-6s0.06-5,1-6a3.32,3.32,0,0,1,4.52-.18,3.85,3.85,0,0,1,1,2.73h-1.65a2.61,2.61,0,0,0-.42-1.58,1.28,1.28,0,0,0-1.08-.48,1.3,1.3,0,0,0-1.11.52c-0.48.65-.58,1.75-0.58,5s0.1,4.35.58,5a1.44,1.44,0,0,0,2.2,0,2.56,2.56,0,0,0,.44-1.56h1.65A3.85,3.85,0,0,1,5773.19,2551.65Z" transform="translate(-5594.79 -2461.11)" fill="#f2f2f2"/><path d="M5776.67,2552.24v-13.7h1.65v13.7h-1.65Z" transform="translate(-5594.79 -2461.11)" fill="#f2f2f2"/><path d="M5786.67,2551.41a3,3,0,0,1-2.37,1,3,3,0,0,1-2.35-1c-0.94-1-1-2.6-1-6s0.05-5,1-6a3,3,0,0,1,2.35-1,3,3,0,0,1,2.37,1c0.94,1,1,2.6,1,6S5787.61,2550.38,5786.67,2551.41Zm-1.25-11a1.46,1.46,0,0,0-2.23,0c-0.48.65-.58,1.75-0.58,5s0.1,4.35.58,5a1.46,1.46,0,0,0,2.23,0c0.48-.65.58-1.75,0.58-5S5785.9,2541,5785.42,2540.39Z" transform="translate(-5594.79 -2461.11)" fill="#f2f2f2"/><path d="M5795.45,2552.24l-3.53-9.36v9.36h-1.66v-13.7h1.54l3.52,9.37,0-9.37H5797v13.7h-1.5Z" transform="translate(-5594.79 -2461.11)" fill="#f2f2f2"/><path d="M5805,2552.24l-0.65-3.23h-3.18l-0.65,3.23h-1.73l3.2-13.7h1.59l3.18,13.7H5805Zm-2.23-11-1.29,6.31H5804Z" transform="translate(-5594.79 -2461.11)" fill="#f2f2f2"/><path d="M5808.55,2552.24v-13.7h1.65v12.22h3.64v1.48h-5.29Z" transform="translate(-5594.79 -2461.11)" fill="#f2f2f2"/><path d="M5816,2552.24v-13.7h5.29V2540h-3.64v4.59h3.13v1.49h-3.13v4.65h3.64v1.48H5816Z" transform="translate(-5594.79 -2461.11)" fill="#f2f2f2"/><path d="M5828.94,2551.55a3.4,3.4,0,0,1-2.42.83,3.29,3.29,0,0,1-2.4-.83,3.66,3.66,0,0,1-.85-2.89h1.65a2.39,2.39,0,0,0,.47,1.79,1.75,1.75,0,0,0,2.31,0,2.53,2.53,0,0,0,.45-1.83c0-1.58-.23-2.06-1.35-2.52l-1.56-.63c-1.41-.58-1.86-1.34-1.86-3.42a3.67,3.67,0,0,1,1-2.81,3.09,3.09,0,0,1,2.17-.79,3.16,3.16,0,0,1,2.27.79,3.62,3.62,0,0,1,.9,2.81h-1.66a2.42,2.42,0,0,0-.42-1.65,1.34,1.34,0,0,0-1.12-.47,1.38,1.38,0,0,0-1.05.42,2.4,2.4,0,0,0-.48,1.64c0,1.35.21,1.75,1.31,2.21l1.54,0.64c1.56,0.63,1.92,1.59,1.92,3.75A3.91,3.91,0,0,1,5828.94,2551.55Z" transform="translate(-5594.79 -2461.11)" fill="#f2f2f2"/><rect x="107.48" y="46.68" width="199.55" height="1.35" fill="#f2f2f2"/><rect x="107.48" y="13.24" width="199.55" height="1.35" fill="#f2f2f2"/><rect x="107.48" y="71.05" width="199.55" height="1.35" fill="#f2f2f2"/><path d="M5712.36,2501.78a5.89,5.89,0,0,1-8.12-.47c-1.65-1.86-1.61-5.06-1.61-9.42s0-7.61,1.61-9.48a5.9,5.9,0,0,1,8.15-.44,6.67,6.67,0,0,1,1.77,4.67h-3.48a4.26,4.26,0,0,0-.53-2.14,1.7,1.7,0,0,0-1.61-.81,1.8,1.8,0,0,0-1.65.83c-0.65,1.06-.77,3.3-0.77,7.34s0.12,6.28.77,7.33a1.79,1.79,0,0,0,1.65.85,1.76,1.76,0,0,0,1.65-.81,4.33,4.33,0,0,0,.53-2.18h3.48A6.61,6.61,0,0,1,5712.36,2501.78Z" transform="translate(-5594.79 -2461.11)" fill="#f2f2f2"/><path d="M5727.32,2501.32a5.86,5.86,0,0,1-8.58,0c-1.65-1.86-1.62-5.1-1.62-9.45s0-7.58,1.62-9.45a5.87,5.87,0,0,1,8.58,0c1.64,1.87,1.62,5.1,1.62,9.45S5729,2499.46,5727.32,2501.32Zm-2.61-16.79a1.84,1.84,0,0,0-1.68-.83,1.8,1.8,0,0,0-1.65.83c-0.65,1.06-.77,3.3-0.77,7.34s0.12,6.28.77,7.33a1.79,1.79,0,0,0,1.65.85,1.82,1.82,0,0,0,1.68-.85c0.65-1.05.75-3.28,0.75-7.33S5725.36,2485.59,5724.71,2484.53Z" transform="translate(-5594.79 -2461.11)" fill="#f2f2f2"/><path d="M5744.24,2502.94v-13.8l-3,9.07h-1.92l-3-8.92v13.65h-3.49v-22.14H5736l4.29,11.64,4.26-11.64h3.17v22.14h-3.47Z" transform="translate(-5594.79 -2461.11)" fill="#f2f2f2"/><path d="M5761.81,2501.57a5.5,5.5,0,0,1-4.11,1.62,5.56,5.56,0,0,1-4.13-1.62,5.69,5.69,0,0,1-1.52-4.07v-16.7h3.49v16.89a2.17,2.17,0,1,0,4.32,0v-16.89h3.48v16.7A5.72,5.72,0,0,1,5761.81,2501.57Z" transform="translate(-5594.79 -2461.11)" fill="#f2f2f2"/><path d="M5776.36,2502.94l-5.22-13.15v13.15h-3.48v-22.14h3.11l5.19,13.15v-13.15h3.49v22.14h-3.08Z" transform="translate(-5594.79 -2461.11)" fill="#f2f2f2"/><path d="M5783.94,2502.94v-22.14h3.49v22.14h-3.49Z" transform="translate(-5594.79 -2461.11)" fill="#f2f2f2"/><path d="M5801.08,2501.78a5.34,5.34,0,0,1-3.82,1.4,5.26,5.26,0,0,1-4.29-1.87c-1.65-1.86-1.63-5.06-1.63-9.42s0-7.61,1.63-9.48a5.89,5.89,0,0,1,8.14-.44,6.66,6.66,0,0,1,1.77,4.67h-3.48a4.29,4.29,0,0,0-.53-2.14,1.69,1.69,0,0,0-1.61-.81,1.78,1.78,0,0,0-1.65.83c-0.66,1.06-.78,3.3-0.78,7.34s0.12,6.28.78,7.33a2,2,0,0,0,3.29,0,4.33,4.33,0,0,0,.52-2.18h3.48A6.64,6.64,0,0,1,5801.08,2501.78Z" transform="translate(-5594.79 -2461.11)" fill="#f2f2f2"/><path d="M5815.26,2502.94l-0.9-4.38h-5.13l-0.87,4.38h-3.67l5.44-22.14h3.38l5.38,22.14h-3.64Zm-3.44-16.79-1.9,9.27h3.8Z" transform="translate(-5594.79 -2461.11)" fill="#f2f2f2"/><path d="M5830.75,2501.78a5.34,5.34,0,0,1-3.83,1.4,5.27,5.27,0,0,1-4.29-1.87c-1.65-1.86-1.62-5.06-1.62-9.42s0-7.61,1.62-9.48a5.89,5.89,0,0,1,8.14-.44,6.66,6.66,0,0,1,1.78,4.67h-3.49a4.2,4.2,0,0,0-.53-2.14,1.69,1.69,0,0,0-1.62-.81,1.77,1.77,0,0,0-1.64.83c-0.66,1.06-.78,3.3-0.78,7.34s0.12,6.28.78,7.33a2,2,0,0,0,3.29,0,4.29,4.29,0,0,0,.53-2.18h3.48A6.6,6.6,0,0,1,5830.75,2501.78Z" transform="translate(-5594.79 -2461.11)" fill="#f2f2f2"/><path d="M5836.28,2502.94v-22.14h3.48v22.14h-3.48Z" transform="translate(-5594.79 -2461.11)" fill="#f2f2f2"/><path d="M5853.88,2501.32a5.85,5.85,0,0,1-8.58,0c-1.66-1.86-1.62-5.1-1.62-9.45s0-7.58,1.62-9.45a5.87,5.87,0,0,1,8.58,0c1.65,1.87,1.62,5.1,1.62,9.45S5855.53,2499.46,5853.88,2501.32Zm-2.61-16.79a1.84,1.84,0,0,0-1.68-.83,1.78,1.78,0,0,0-1.65.83c-0.66,1.06-.78,3.3-0.78,7.34s0.12,6.28.78,7.33a1.77,1.77,0,0,0,1.65.85,1.82,1.82,0,0,0,1.68-.85c0.65-1.05.75-3.28,0.75-7.33S5851.92,2485.59,5851.27,2484.53Z" transform="translate(-5594.79 -2461.11)" fill="#f2f2f2"/><path d="M5868.12,2502.94l-5.22-13.15v13.15h-3.48v-22.14h3.12l5.19,13.15v-13.15h3.48v22.14h-3.08Z" transform="translate(-5594.79 -2461.11)" fill="#f2f2f2"/><path d="M5875.72,2502.94v-22.14H5885v3.15h-5.81v6.27h5v3.14h-5v6.44H5885v3.14h-9.29Z" transform="translate(-5594.79 -2461.11)" fill="#f2f2f2"/><path d="M5898.07,2501.69a6.09,6.09,0,0,1-4.32,1.46,5.84,5.84,0,0,1-4.29-1.46c-1.06-1.05-1.43-2.42-1.43-4.75h3.48a3.5,3.5,0,0,0,.63,2.49,2.08,2.08,0,0,0,1.62.59,2.06,2.06,0,0,0,1.68-.63,3.55,3.55,0,0,0,.58-2.45c0-2.36-.37-3-2.08-3.64l-2.65-1.08c-2.23-.94-3.08-2.15-3.08-5.57A6,6,0,0,1,5890,2482a5.54,5.54,0,0,1,3.79-1.34,5.47,5.47,0,0,1,4,1.34c1.15,1.12,1.55,2.7,1.55,4.82h-3.48a3.69,3.69,0,0,0-.53-2.36,1.82,1.82,0,0,0-1.55-.65,1.89,1.89,0,0,0-1.5.62,3.31,3.31,0,0,0-.58,2.18c0,1.81.28,2.36,1.83,3l2.61,1.05c2.64,1.08,3.36,2.5,3.36,6.22C5899.5,2499.09,5899.19,2500.61,5898.07,2501.69Z" transform="translate(-5594.79 -2461.11)" fill="#f2f2f2"/></svg>