<svg xmlns="http://www.w3.org/2000/svg" viewBox="0 0 40 42.48"><title>conciencia</title><path d="M4524.54,4319.47l-16.8,17.65,5.14,5.39,16.8-17.65,7.74-8.13-5.14-5.39Zm-11.67,21.44-3.61-3.8,16-16.85,3.61,3.8Zm19.4-28,3.61,3.8-6.21,6.53-3.61-3.8Z" transform="translate(-4507.74 -4300.04)" fill="#fff"/><polygon points="35.57 20.7 36.65 20.7 36.65 17.17 40 17.17 40 16.04 36.65 16.04 36.65 12.52 35.57 12.52 35.57 16.04 32.21 16.04 32.21 17.17 35.57 17.17 35.57 20.7" fill="#fff"/><polygon points="36.76 24.66 36.76 23.53 33.41 23.53 33.41 20.01 32.33 20.01 32.33 23.53 28.97 23.53 28.97 24.66 32.33 24.66 32.33 28.19 33.41 28.19 33.41 24.66 36.76 24.66" fill="#fff"/><polygon points="28.62 3.52 25.26 3.52 25.26 0 24.18 0 24.18 3.52 20.83 3.52 20.83 4.65 24.18 4.65 24.18 8.18 25.26 8.18 25.26 4.65 28.62 4.65 28.62 3.52" fill="#fff"/><polygon points="21.48 6.93 18.13 6.93 18.13 3.4 17.05 3.4 17.05 6.93 13.7 6.93 13.7 8.06 17.05 8.06 17.05 11.58 18.13 11.58 18.13 8.06 21.48 8.06 21.48 6.93" fill="#fff"/></svg>