<svg xmlns="http://www.w3.org/2000/svg" viewBox="0 0 284.52 95.42"><title>e70-blue</title><path d="M5710.92,7634.32c-2.21,0-4,1.56-4,4.68v20.95c0,3.12,1.75,4.68,4,4.68s4-1.56,4-4.68V7639C5715,7635.88,5713.13,7634.32,5710.92,7634.32Z" transform="translate(-5638.66 -7601.11)" fill="#1a71a7"/><path d="M5729.67,7612.21c-1.5-1.51-4-2.05-8.77-2.05h-37c-8.91,0-11.78-4.66-13.7-9-1.92,4.38-4.8,9-13.71,9h-7.13c-4.8,0-7.27.55-8.78,2.05s-1.92,3.56-1.92,7.95v7.09h0v50.24c0,4.38.41,6.58,1.92,7.95s4,2.06,8.77,2.06h40.73c8.91,0,11.79,4.66,13.71,9,1.92-4.38,4.79-9,13.71-9h3.39c4.8,0,7.27-.55,8.77-2.06s1.92-3.56,1.92-7.95v-57.33C5731.58,7615.78,5731.18,7613.58,5729.67,7612.21Zm-59.27,15.35h-12.29v15.54h10.6v5h-10.6v15.74h12.29v5h-17.88v-46.31h17.88v5Zm26.6,6.83-12.42,42h-5.2l12.29-41.57h-9v6.83h-5.14V7630H5697v4.36Zm23.22,25.36c0,3.45-1,5.53-2.6,7.16a9.87,9.87,0,0,1-6.7,2.47,9.72,9.72,0,0,1-6.64-2.47c-1.62-1.63-2.6-3.71-2.6-7.16v-20.49c0-3.44,1-5.53,2.6-7.15a9.7,9.7,0,0,1,6.64-2.47,9.86,9.86,0,0,1,6.7,2.47c1.63,1.62,2.6,3.71,2.6,7.15v20.49Z" transform="translate(-5638.66 -7601.11)" fill="#1a71a7"/><path d="M5742.49,7657.44h-1.31v5.27h-1.54V7650h2.85c1.93,0,3,.88,3,3.69C5745.51,7656.34,5744.59,7657.44,5742.49,7657.44Zm0-6h-1.35v4.67h1.35c1.18,0,1.44-.95,1.44-2.34S5743.7,7651.4,5742.53,7651.4Z" transform="translate(-5638.66 -7601.11)" fill="#1a71a7"/><path d="M5752.83,7662a2.79,2.79,0,0,1-2.19.91,2.76,2.76,0,0,1-2.18-.91c-0.87-1-.92-2.41-0.92-5.58s0.05-4.61.92-5.58a2.76,2.76,0,0,1,2.18-.91,2.8,2.8,0,0,1,2.19.91c0.88,1,.91,2.41.91,5.58S5753.7,7661,5752.83,7662Zm-1.16-10.21a1.36,1.36,0,0,0-2.07,0c-0.44.61-.53,1.62-0.53,4.63s0.09,4,.53,4.64a1.35,1.35,0,0,0,2.07,0c0.45-.6.53-1.62,0.53-4.64S5752.12,7652.35,5751.67,7651.74Z" transform="translate(-5638.66 -7601.11)" fill="#1a71a7"/><path d="M5756.16,7662.72V7650h1.54v11.32h3.37v1.37h-4.91Z" transform="translate(-5638.66 -7601.11)" fill="#1a71a7"/><path d="M5763,7662.72V7650h1.54v12.69H5763Zm0-13.57h1.32l1.21-2.27h-1.09Z" transform="translate(-5638.66 -7601.11)" fill="#1a71a7"/><path d="M5770.22,7651.4v11.32h-1.53V7651.4h-2.14V7650h5.8v1.37h-2.12Z" transform="translate(-5638.66 -7601.11)" fill="#1a71a7"/><path d="M5774.3,7662.72V7650h1.54v12.69h-1.54Z" transform="translate(-5638.66 -7601.11)" fill="#1a71a7"/><path d="M5783.34,7662.17a2.68,2.68,0,0,1-2,.69,2.75,2.75,0,0,1-2.17-.91c-0.88-1-.93-2.41-0.93-5.58s0.05-4.61.93-5.58a3.07,3.07,0,0,1,4.19-.16,3.58,3.58,0,0,1,.91,2.53h-1.53a2.4,2.4,0,0,0-.39-1.46,1.18,1.18,0,0,0-1-.44,1.22,1.22,0,0,0-1,.48c-0.44.61-.53,1.62-0.53,4.63s0.09,4,.53,4.64a1.21,1.21,0,0,0,1,.48,1.2,1.2,0,0,0,1-.46,2.36,2.36,0,0,0,.41-1.45h1.54A3.56,3.56,0,0,1,5783.34,7662.17Z" transform="translate(-5638.66 -7601.11)" fill="#1a71a7"/><path d="M5791.27,7662.72l-0.61-3h-2.94l-0.61,3h-1.6l3-12.69H5790l2.94,12.69h-1.62Zm-2.07-10.21-1.19,5.85h2.37Z" transform="translate(-5638.66 -7601.11)" fill="#1a71a7"/><path d="M5799.45,7662.08a3.15,3.15,0,0,1-2.25.77,3,3,0,0,1-2.22-.77,3.4,3.4,0,0,1-.78-2.68h1.53a2.22,2.22,0,0,0,.43,1.66,1.62,1.62,0,0,0,2.14,0,2.35,2.35,0,0,0,.41-1.69c0-1.46-.21-1.91-1.25-2.34l-1.45-.59c-1.3-.54-1.73-1.25-1.73-3.17a3.41,3.41,0,0,1,1-2.61,2.87,2.87,0,0,1,2-.73,2.92,2.92,0,0,1,2.1.73,3.35,3.35,0,0,1,.84,2.61h-1.54a2.26,2.26,0,0,0-.39-1.53,1.25,1.25,0,0,0-1-.43,1.28,1.28,0,0,0-1,.39,2.22,2.22,0,0,0-.44,1.51c0,1.25.19,1.62,1.21,2l1.43,0.59c1.44,0.59,1.78,1.48,1.78,3.47A3.62,3.62,0,0,1,5799.45,7662.08Z" transform="translate(-5638.66 -7601.11)" fill="#1a71a7"/><path d="M5740.5,7685.56v-12.69h4.9v1.37H5742v4.26h2.91v1.38H5742v4.31h3.37v1.37h-4.9Z" transform="translate(-5638.66 -7601.11)" fill="#1a71a7"/><path d="M5751.49,7685.56v-12.69H5753v12.69h-1.53Z" transform="translate(-5638.66 -7601.11)" fill="#1a71a7"/><path d="M5760.58,7685.56l-3.28-8.68v8.68h-1.53v-12.69h1.43l3.26,8.68,0-8.68H5762v12.69h-1.39Z" transform="translate(-5638.66 -7601.11)" fill="#1a71a7"/><path d="M5769.51,7684.92a3.16,3.16,0,0,1-2.25.77,3.06,3.06,0,0,1-2.23-.77,3.39,3.39,0,0,1-.79-2.68h1.53a2.2,2.2,0,0,0,.43,1.66,1.38,1.38,0,0,0,1.05.4,1.4,1.4,0,0,0,1.09-.41,2.35,2.35,0,0,0,.41-1.69c0-1.46-.21-1.91-1.25-2.34l-1.45-.59c-1.3-.54-1.72-1.25-1.72-3.17a3.4,3.4,0,0,1,1-2.61,2.87,2.87,0,0,1,2-.73,2.92,2.92,0,0,1,2.1.73,3.34,3.34,0,0,1,.84,2.61h-1.53a2.23,2.23,0,0,0-.39-1.53,1.25,1.25,0,0,0-1-.43,1.28,1.28,0,0,0-1,.39,2.23,2.23,0,0,0-.44,1.52c0,1.25.19,1.62,1.21,2l1.43,0.59c1.45,0.59,1.78,1.47,1.78,3.47A3.64,3.64,0,0,1,5769.51,7684.92Z" transform="translate(-5638.66 -7601.11)" fill="#1a71a7"/><path d="M5775.5,7674.24v11.32H5774v-11.32h-2.14v-1.37h5.79v1.37h-2.12Z" transform="translate(-5638.66 -7601.11)" fill="#1a71a7"/><path d="M5779.58,7685.56v-12.69h1.53v12.69h-1.53Z" transform="translate(-5638.66 -7601.11)" fill="#1a71a7"/><path d="M5786.76,7674.24v11.32h-1.53v-11.32h-2.14v-1.37h5.8v1.37h-2.13Z" transform="translate(-5638.66 -7601.11)" fill="#1a71a7"/><path d="M5795.78,7684.87a3.07,3.07,0,0,1-4.22,0,3,3,0,0,1-.82-2.19v-9.8h1.53v9.9a1.41,1.41,0,1,0,2.8,0v-9.9h1.54v9.8A3,3,0,0,1,5795.78,7684.87Z" transform="translate(-5638.66 -7601.11)" fill="#1a71a7"/><path d="M5804,7685a2.69,2.69,0,0,1-2,.69,2.76,2.76,0,0,1-2.18-.91c-0.87-1-.93-2.41-0.93-5.58s0.06-4.62.93-5.58a3.08,3.08,0,0,1,4.19-.16,3.56,3.56,0,0,1,.91,2.53h-1.53a2.42,2.42,0,0,0-.39-1.46,1.19,1.19,0,0,0-1-.44,1.2,1.2,0,0,0-1,.48c-0.45.61-.54,1.62-0.54,4.63s0.09,4,.54,4.64a1.33,1.33,0,0,0,2,0,2.38,2.38,0,0,0,.41-1.45H5805A3.57,3.57,0,0,1,5804,7685Z" transform="translate(-5638.66 -7601.11)" fill="#1a71a7"/><path d="M5807.2,7685.56v-12.69h1.53v12.69h-1.53Z" transform="translate(-5638.66 -7601.11)" fill="#1a71a7"/><path d="M5816.47,7684.79a2.8,2.8,0,0,1-2.19.91,2.75,2.75,0,0,1-2.18-.91c-0.87-1-.92-2.41-0.92-5.58s0.05-4.62.92-5.58a2.76,2.76,0,0,1,2.18-.91,2.8,2.8,0,0,1,2.19.91c0.87,1,.91,2.41.91,5.58S5817.34,7683.83,5816.47,7684.79Zm-1.16-10.21a1.35,1.35,0,0,0-2.07,0c-0.44.61-.53,1.62-0.53,4.63s0.09,4,.53,4.64a1.35,1.35,0,0,0,2.07,0c0.44-.6.53-1.62,0.53-4.64S5815.75,7675.19,5815.31,7674.58Z" transform="translate(-5638.66 -7601.11)" fill="#1a71a7"/><path d="M5824.61,7685.56l-3.28-8.68v8.68h-1.53v-12.69h1.42l3.27,8.68,0-8.68H5826v12.69h-1.39Z" transform="translate(-5638.66 -7601.11)" fill="#1a71a7"/><path d="M5833.45,7685.56l-0.6-3h-2.94l-0.61,3h-1.6l3-12.69h1.48l2.94,12.69h-1.62Zm-2.07-10.22-1.19,5.85h2.37Z" transform="translate(-5638.66 -7601.11)" fill="#1a71a7"/><path d="M5836.75,7685.56v-12.69h1.53v11.32h3.37v1.37h-4.9Z" transform="translate(-5638.66 -7601.11)" fill="#1a71a7"/><path d="M5843.63,7685.56v-12.69h4.9v1.37h-3.37v4.26h2.9v1.38h-2.9v4.31h3.37v1.37h-4.9Z" transform="translate(-5638.66 -7601.11)" fill="#1a71a7"/><path d="M5855.64,7684.92a3.16,3.16,0,0,1-2.25.77,3.05,3.05,0,0,1-2.23-.77,3.39,3.39,0,0,1-.79-2.68h1.53a2.21,2.21,0,0,0,.43,1.66,1.62,1.62,0,0,0,2.14,0,2.34,2.34,0,0,0,.41-1.69c0-1.46-.22-1.91-1.25-2.34l-1.44-.59c-1.3-.54-1.73-1.25-1.73-3.17a3.4,3.4,0,0,1,1-2.61,2.86,2.86,0,0,1,2-.73,2.92,2.92,0,0,1,2.1.73,3.35,3.35,0,0,1,.84,2.61h-1.53a2.24,2.24,0,0,0-.39-1.53,1.24,1.24,0,0,0-1-.43,1.27,1.27,0,0,0-1,.39,2.23,2.23,0,0,0-.45,1.52c0,1.25.19,1.62,1.21,2l1.43,0.59c1.44,0.59,1.78,1.47,1.78,3.47A3.62,3.62,0,0,1,5855.64,7684.92Z" transform="translate(-5638.66 -7601.11)" fill="#1a71a7"/><rect x="99.6" y="43.26" width="184.92" height="1.25" fill="#1a71a7"/><rect x="99.6" y="12.27" width="184.92" height="1.25" fill="#1a71a7"/><rect x="99.6" y="65.84" width="184.92" height="1.25" fill="#1a71a7"/><path d="M5747.61,7638.81a5.45,5.45,0,0,1-7.52-.43c-1.53-1.72-1.5-4.69-1.5-8.73s0-7.05,1.5-8.79a5.47,5.47,0,0,1,7.55-.41,6.18,6.18,0,0,1,1.64,4.33h-3.23a3.94,3.94,0,0,0-.49-2,1.58,1.58,0,0,0-1.5-.75,1.67,1.67,0,0,0-1.53.77c-0.6,1-.72,3.05-0.72,6.8s0.11,5.82.72,6.79a1.66,1.66,0,0,0,1.53.79,1.63,1.63,0,0,0,1.53-.75,4,4,0,0,0,.49-2h3.23A6.12,6.12,0,0,1,5747.61,7638.81Z" transform="translate(-5638.66 -7601.11)" fill="#1a71a7"/><path d="M5761.47,7638.37a5.43,5.43,0,0,1-8,0c-1.53-1.72-1.5-4.72-1.5-8.75s0-7,1.5-8.76a5.44,5.44,0,0,1,8,0c1.52,1.73,1.5,4.72,1.5,8.76S5763,7636.65,5761.47,7638.37Zm-2.42-15.56a1.7,1.7,0,0,0-1.56-.77,1.66,1.66,0,0,0-1.53.77c-0.6,1-.72,3.05-0.72,6.8s0.12,5.82.72,6.79a1.65,1.65,0,0,0,1.53.79,1.69,1.69,0,0,0,1.56-.79c0.6-1,.69-3,0.69-6.79S5759.65,7623.79,5759.05,7622.81Z" transform="translate(-5638.66 -7601.11)" fill="#1a71a7"/><path d="M5777.15,7639.87v-12.79l-2.8,8.41h-1.78l-2.74-8.27v12.65h-3.23v-20.52h2.91l4,10.78,3.94-10.78h2.94v20.52h-3.22Z" transform="translate(-5638.66 -7601.11)" fill="#1a71a7"/><path d="M5793.43,7638.6a5.1,5.1,0,0,1-3.8,1.5,5.15,5.15,0,0,1-3.83-1.5,5.27,5.27,0,0,1-1.41-3.77v-15.48h3.23V7635a2,2,0,1,0,4,0v-15.65h3.23v15.48A5.3,5.3,0,0,1,5793.43,7638.6Z" transform="translate(-5638.66 -7601.11)" fill="#1a71a7"/><path d="M5806.92,7639.87l-4.84-12.19v12.19h-3.23v-20.52h2.88l4.81,12.19v-12.19h3.23v20.52h-2.85Z" transform="translate(-5638.66 -7601.11)" fill="#1a71a7"/><path d="M5813.94,7639.87v-20.52h3.24v20.52h-3.24Z" transform="translate(-5638.66 -7601.11)" fill="#1a71a7"/><path d="M5829.83,7638.81a5,5,0,0,1-3.54,1.3,4.87,4.87,0,0,1-4-1.73c-1.53-1.72-1.51-4.69-1.51-8.73s0-7.05,1.51-8.79a5.46,5.46,0,0,1,7.55-.41,6.17,6.17,0,0,1,1.64,4.33h-3.22a4,4,0,0,0-.49-2,1.57,1.57,0,0,0-1.49-.75,1.65,1.65,0,0,0-1.53.77c-0.61,1-.72,3.05-0.72,6.8s0.11,5.82.72,6.79a1.9,1.9,0,0,0,3.05,0,4,4,0,0,0,.49-2h3.23A6.15,6.15,0,0,1,5829.83,7638.81Z" transform="translate(-5638.66 -7601.11)" fill="#1a71a7"/><path d="M5843,7639.87l-0.83-4.06h-4.75l-0.81,4.06h-3.4l5-20.52h3.13l5,20.52H5843Zm-3.19-15.56-1.76,8.59h3.52Z" transform="translate(-5638.66 -7601.11)" fill="#1a71a7"/><path d="M5857.32,7638.81a5,5,0,0,1-3.55,1.3,4.88,4.88,0,0,1-4-1.73c-1.53-1.72-1.5-4.69-1.5-8.73s0-7.05,1.5-8.79a5.46,5.46,0,0,1,7.54-.41,6.17,6.17,0,0,1,1.65,4.33h-3.23a3.89,3.89,0,0,0-.49-2,1.57,1.57,0,0,0-1.5-.75,1.64,1.64,0,0,0-1.52.77c-0.61,1-.73,3.05-0.73,6.8s0.12,5.82.73,6.79a1.89,1.89,0,0,0,3,0,4,4,0,0,0,.49-2H5859A6.12,6.12,0,0,1,5857.32,7638.81Z" transform="translate(-5638.66 -7601.11)" fill="#1a71a7"/><path d="M5862.45,7639.87v-20.52h3.23v20.52h-3.23Z" transform="translate(-5638.66 -7601.11)" fill="#1a71a7"/><path d="M5878.75,7638.37a5.42,5.42,0,0,1-7.95,0c-1.53-1.72-1.5-4.72-1.5-8.75s0-7,1.5-8.76a5.44,5.44,0,0,1,7.95,0c1.53,1.73,1.5,4.72,1.5,8.76S5880.28,7636.65,5878.75,7638.37Zm-2.42-15.56a1.7,1.7,0,0,0-1.56-.77,1.65,1.65,0,0,0-1.53.77c-0.61,1-.72,3.05-0.72,6.8s0.11,5.82.72,6.79a1.64,1.64,0,0,0,1.53.79,1.69,1.69,0,0,0,1.56-.79c0.6-1,.69-3,0.69-6.79S5876.94,7623.79,5876.33,7622.81Z" transform="translate(-5638.66 -7601.11)" fill="#1a71a7"/><path d="M5891.95,7639.87l-4.84-12.19v12.19h-3.23v-20.52h2.89l4.81,12.19v-12.19h3.22v20.52h-2.85Z" transform="translate(-5638.66 -7601.11)" fill="#1a71a7"/><path d="M5899,7639.87v-20.52h8.61v2.92h-5.39v5.81h4.64V7631h-4.64v6h5.39v2.91H5899Z" transform="translate(-5638.66 -7601.11)" fill="#1a71a7"/><path d="M5919.7,7638.72a5.64,5.64,0,0,1-4,1.36,5.41,5.41,0,0,1-4-1.36c-1-1-1.33-2.25-1.33-4.4h3.23a3.24,3.24,0,0,0,.58,2.3,1.93,1.93,0,0,0,1.5.55,1.91,1.91,0,0,0,1.56-.58,3.29,3.29,0,0,0,.54-2.27c0-2.19-.34-2.74-1.92-3.37l-2.45-1c-2.07-.87-2.85-2-2.85-5.16a5.6,5.6,0,0,1,1.68-4.35,5.14,5.14,0,0,1,3.51-1.24,5.07,5.07,0,0,1,3.69,1.24c1.07,1,1.44,2.51,1.44,4.46h-3.22a3.42,3.42,0,0,0-.49-2.19,1.69,1.69,0,0,0-1.44-.61,1.75,1.75,0,0,0-1.39.57,3.07,3.07,0,0,0-.54,2c0,1.67.26,2.19,1.7,2.76l2.42,1c2.45,1,3.11,2.31,3.11,5.76C5921,7636.3,5920.74,7637.71,5919.7,7638.72Z" transform="translate(-5638.66 -7601.11)" fill="#1a71a7"/></svg>