<svg xmlns="http://www.w3.org/2000/svg" viewBox="0 0 33 59.83"><title>election</title><path d="M5880.28,4121.67a0.92,0.92,0,0,0,0-.27l0-.07,0-.07-6.8-13.18a0.67,0.67,0,0,0-.58-0.39h-3.5l7.9-9.27a0.9,0.9,0,0,0,0-1.13L5866,4084.17a0.61,0.61,0,0,0-1,0l-14.68,17.22a0.9,0.9,0,0,0,0,1.13l4.41,5.18h0a0.67,0.67,0,0,0-.58.39l-6.8,13.18,0,0.07,0,0.07a0.93,0.93,0,0,0,0,.27h0V4143a0.75,0.75,0,0,0,.68.8h31.64a0.75,0.75,0,0,0,.68-0.8v-21.29h0Zm-14.75-35.8,10.22,12L5862,4114l-5.13-6-5.09-6Zm-10.38,23.43h1l5.41,6.35a0.68,0.68,0,0,0,.22.17,0.58,0.58,0,0,0,.26.06h5.88a0.81,0.81,0,0,0,0-1.6h-4.24l4.25-5h4.48l6,11.58h-29.22Zm23.77,32.87h-30.28v-19.7h30.28v19.7h0Z" transform="translate(-5847.28 -4083.94)" fill="#fff"/></svg>