<svg xmlns="http://www.w3.org/2000/svg" viewBox="0 0 40 40"><title>institucional</title><path d="M4353.46,4312.65v-10.13h-10.13V4307h-19.74v-4.44h-10.13v10.13h4.44v19.74h-4.44v10.13h10.13v-4.44h19.74v4.44h10.13v-10.13H4349v-19.74h4.44Zm-8.89-8.89h7.65v7.65h-7.65v-7.65Zm-29.87,7.65v-7.65h7.65v7.65h-7.65Zm7.65,29.87h-7.65v-7.65h7.65v7.65h0Zm29.87-7.65v7.65h-7.65v-7.65h7.65Zm-4.44-1.24h-4.44v4.44h-19.74v-4.44h-4.44v-19.74h4.44v-4.44h19.74v4.44h4.44v19.74Z" transform="translate(-4313.46 -4302.52)" fill="#fff"/></svg>